<svg xmlns="http://www.w3.org/2000/svg" width="472.484" height="386.141" viewBox="0 0 472.484 386.141">
  <g transform="translate(2027.813 -551.077)">
    <path d="M433.1,353.224l28.786-28.786a20.356,20.356,0,1,0-28.786-28.79l-28.786,28.79-28.79-28.79a20.356,20.356,0,1,0-28.786,28.79l28.786,28.786-71.951,71.969a20.346,20.346,0,1,0,28.773,28.773l71.969-71.956L433.1,410.8a20.356,20.356,0,1,0,28.786-28.79Z" transform="translate(-2152.711 434.097)" fill="#fff"/>
    <path d="M423.079,413.885a20.364,20.364,0,0,0,28.786,0L581.4,284.357a20.358,20.358,0,1,0-28.79-28.79L437.472,370.7,322.324,255.567a20.352,20.352,0,1,0-28.773,28.79Z" transform="translate(-2185.864 301.476)" fill="#fff"/>
    <path d="M393.01,457.058a20.358,20.358,0,1,0,28.79-28.79L292.255,298.741a20.35,20.35,0,1,0-28.773,28.786Zm43.183-43.183a20.34,20.34,0,0,0,28.786,0l21.579-21.587L457.78,363.511l-7.2,7.2L335.434,255.562a20.355,20.355,0,1,0-28.786,28.786Zm-57.576,57.576a20.355,20.355,0,1,1-28.786,28.786l-86.349-86.362a20.35,20.35,0,0,1,28.773-28.786Z" transform="translate(-2285.331 301.481)" fill="#fff"/>
    <path d="M407.583,284.347A20.354,20.354,0,1,0,378.8,255.56l-64.774,64.771,28.79,28.786Z" transform="translate(-2098.406 301.478)" fill="#fff"/>
    <path d="M430.017,285.63l-86.362,86.362a20.35,20.35,0,1,0,28.786,28.773L458.8,314.416a20.355,20.355,0,1,0-28.786-28.786" transform="translate(-2020.091 400.945)" fill="#fff"/>
    <path d="M343.663,380.728a20.364,20.364,0,0,0,28.786,0L458.8,294.366a20.346,20.346,0,1,0-28.773-28.773l-86.362,86.349a20.341,20.341,0,0,0,0,28.786" transform="translate(-2020.094 334.633)" fill="#fff"/>
    <path d="M365.507,305.676a20.363,20.363,0,0,0-28.786,0l-43.183,43.183a20.355,20.355,0,1,0,28.786,28.786l43.183-43.183a20.34,20.34,0,0,0,0-28.786" transform="translate(-2185.864 467.257)" fill="#fff"/>
    <path d="M385.553,325.729a20.341,20.341,0,0,0-28.786,0l-43.183,43.183A20.355,20.355,0,1,0,342.37,397.7l43.183-43.183a20.364,20.364,0,0,0,0-28.786" transform="translate(-2119.551 533.557)" fill="#fff"/>
  </g>
</svg>
